<?xml version="1.0" encoding="utf-8"?>
<svg xmlns="http://www.w3.org/2000/svg" viewBox="0 0 24 24" width="96" height="96">
  <path d="M16.5,3C13.605,3,12,5.09,12,5.09S10.395,3,7.5,3C4.462,3,2,5.462,2,8.5c0,4.171,4.912,8.213,6.281,9.49C9.858,19.46,12,21.35,12,21.35s2.142-1.89,3.719-3.36C17.088,16.713,22,12.671,22,8.5C22,5.462,19.538,3,16.5,3z M14.811,16.11c-0.177,0.16-0.331,0.299-0.456,0.416c-0.751,0.7-1.639,1.503-2.355,2.145c-0.716-0.642-1.605-1.446-2.355-2.145c-0.126-0.117-0.28-0.257-0.456-0.416C7.769,14.827,4,11.419,4,8.5C4,6.57,5.57,5,7.5,5c1.827,0,2.886,1.275,2.914,1.308L12,8l1.586-1.692C13.596,6.295,14.673,5,16.5,5C18.43,5,20,6.57,20,8.5C20,11.419,16.231,14.827,14.811,16.11z" fill="#0081DD" />
  <path d="M15.163,16.645c-0.199,0.18-0.372,0.336-0.513,0.468c-0.844,0.787-1.844,1.691-2.65,2.413c-0.805-0.722-1.805-1.626-2.65-2.413c-0.141-0.132-0.315-0.289-0.513-0.468C7.241,15.201,3,11.366,3,8.083c0-2.171,1.766-3.938,3.937-3.938c2.055,0,3.247,1.434,3.278,1.472L12,7.521l1.784-1.903c0.011-0.015,1.223-1.472,3.278-1.472C19.234,4.146,21,5.912,21,8.083C21,11.366,16.759,15.201,15.163,16.645z" opacity=".3" fill="#0081DD" />
</svg>