<?xml version="1.0" encoding="utf-8"?>
<svg xmlns="http://www.w3.org/2000/svg" viewBox="0 0 24 24" width="384" height="384">
  <path d="M17,22H7c-1.657,0-3-1.343-3-3V6c0-1.657,1.343-3,3-3h10c1.657,0,3,1.343,3,3v13 C20,20.657,18.657,22,17,22z" opacity=".35" />
  <path d="M14,1h-4C8.895,1,8,1.895,8,3c0,1.105,0.895,2,2,2h4c1.105,0,2-0.895,2-2C16,1.895,15.105,1,14,1z" />
  <path d="M16,11H8c-0.553,0-1-0.448-1-1s0.447-1,1-1h8c0.553,0,1,0.448,1,1S16.553,11,16,11z" />
  <path d="M12,15H8c-0.553,0-1-0.448-1-1s0.447-1,1-1h4c0.553,0,1,0.448,1,1S12.553,15,12,15z" />
  <path d="M14,19H8c-0.553,0-1-0.448-1-1s0.447-1,1-1h6c0.553,0,1,0.448,1,1S14.553,19,14,19z" />
</svg>