<?xml version="1.0" encoding="utf-8"?>
<svg xmlns="http://www.w3.org/2000/svg" viewBox="0 0 48 48" width="144" height="144">
  <path d="M20.5 3C18.203405 3 16.305701 4.7666235 16.050781 7L12.5 7C10.032499 7 8 9.0324991 8 11.5L8 38.5C8 40.967501 10.032499 43 12.5 43L35.5 43C37.967501 43 40 40.967501 40 38.5L40 11.5C40 9.0324991 37.967501 7 35.5 7L31.949219 7C31.694299 4.7666235 29.796595 3 27.5 3L20.5 3 z M 20.5 6L27.5 6C28.346499 6 29 6.6535009 29 7.5C29 8.3464991 28.346499 9 27.5 9L20.5 9C19.653501 9 19 8.3464991 19 7.5C19 6.6535009 19.653501 6 20.5 6 z M 12.5 10L16.769531 10C17.581237 11.2019 18.954719 12 20.5 12L27.5 12C29.045281 12 30.418763 11.2019 31.230469 10L35.5 10C36.346499 10 37 10.653501 37 11.5L37 38.5C37 39.346499 36.346499 40 35.5 40L12.5 40C11.653501 40 11 39.346499 11 38.5L11 11.5C11 10.653501 11.653501 10 12.5 10 z M 16.5 17 A 1.50015 1.50015 0 1 0 16.5 20L31.5 20 A 1.50015 1.50015 0 1 0 31.5 17L16.5 17 z M 16.5 25 A 1.50015 1.50015 0 1 0 16.5 28L23.5 28 A 1.50015 1.50015 0 1 0 23.5 25L16.5 25 z M 16.5 33 A 1.50015 1.50015 0 1 0 16.5 36L27.5 36 A 1.50015 1.50015 0 1 0 27.5 33L16.5 33 z" />
</svg>